# xmcd CD database file
#
# Track frame offsets:
#	150
#	16990
#	31838
#	42880
#	55233
#	66395
#	83243
#	96213
#	109173
#	121828
#	133743
#	145820
#	156358
#	166485
#	177678
#	191328
#	207045
#	220263
#	233565
#	254970
#
# Disc length: 3546 seconds
#
# Revision: 1
# Processed by: cddbd v1.5.1PL0 Copyright (c) Steve Scherf et al.
# Submitted via: CDex 1.51
#
DISCID=230dd814
DTITLE=Aliki Vougiouklaki - Aliki
DYEAR=1994
DGENRE=greek
TTITLE0=To Gkrizo Gati
TTITLE1=Exo Ena Mistiko
TTITLE2=Riko Riko Rikoko
TTITLE3=Aliki Tsa Tsa Tsa
TTITLE4=Spourgitaki Mou
TTITLE5=To Klotsoskoufi
TTITLE6=Mes' Auti Ti Varka
TTITLE7=Thalassa Platia
TTITLE8=Trava Mpros
TTITLE9=O Glaros
TTITLE10=To Touist Tis Mple Podias
TTITLE11=Osa Tragoudia Xero
TTITLE12=Thalassopoulia
TTITLE13=Katerina
TTITLE14=Ilios Pano, Ilios Kato
TTITLE15=Gire Stin Petra
TTITLE16=Ston Ilio Tou Mesimeriou
TTITLE17=Alitaki Mpatiraki
TTITLE18=I Agapi Theli Dio
TTITLE19=Xanthomallou
EXTD=YEAR: 1994
EXTT0=
EXTT1=
EXTT2=
EXTT3=
EXTT4=
EXTT5=
EXTT6=
EXTT7=
EXTT8=
EXTT9=
EXTT10=
EXTT11=
EXTT12=
EXTT13=
EXTT14=
EXTT15=
EXTT16=
EXTT17=
EXTT18=
EXTT19=
PLAYORDER=
